<svg id="camera-fill" xmlns="http://www.w3.org/2000/svg" width="53.77" height="53.769" viewBox="0 0 53.77 53.769">
  <path id="Path_23926" data-name="Path 23926" d="M0,0H53.769V53.769H0Z" fill="none"/>
  <path id="Path_23927" data-name="Path 23927" d="M17.683,3H31.125l4.481,4.481h8.962a2.24,2.24,0,0,1,2.24,2.24V41.087a2.24,2.24,0,0,1-2.24,2.24H4.24A2.24,2.24,0,0,1,2,41.087V9.721a2.24,2.24,0,0,1,2.24-2.24H13.2ZM24.4,38.846A13.442,13.442,0,1,0,10.962,25.4,13.442,13.442,0,0,0,24.4,38.846Zm0-4.481A8.962,8.962,0,1,1,33.366,25.4,8.962,8.962,0,0,1,24.4,34.366Z" transform="translate(2.481 3.721)" fill="#707070"/>
</svg>
