<svg xmlns="http://www.w3.org/2000/svg" width="53.77" height="53.769" viewBox="0 0 53.77 53.769">
  <g id="mic-fill" transform="translate(0)">
    <path id="Path_23928" data-name="Path 23928" d="M0,0H53.769V53.769H0Z" transform="translate(0)" fill="none"/>
    <path id="Path_23929" data-name="Path 23929" d="M23.1,1A11.2,11.2,0,0,1,34.3,12.2v8.962a11.2,11.2,0,0,1-22.4,0V12.2A11.2,11.2,0,0,1,23.1,1ZM3.055,23.4H7.569a15.687,15.687,0,0,0,31.047,0h4.517a20.173,20.173,0,0,1-17.8,17.8v9.085H20.855V41.2a20.173,20.173,0,0,1-17.8-17.8Z" transform="translate(3.79 1.24)" fill="#707070"/>
  </g>
</svg>
