<svg xmlns="http://www.w3.org/2000/svg" width="53.77" height="53.769" viewBox="0 0 53.77 53.769">
  <g id="vidicon-fill" transform="translate(0)">
    <path id="Path_23930" data-name="Path 23930" d="M0,0H53.769V53.769H0Z" transform="translate(0)" fill="none"/>
    <path id="Path_23931" data-name="Path 23931" d="M36.846,15.65,48.526,7.473a1.12,1.12,0,0,1,1.763.919V35.455a1.12,1.12,0,0,1-1.763.919L36.846,28.2v9.41a2.24,2.24,0,0,1-2.24,2.24H3.24A2.24,2.24,0,0,1,1,37.606V6.24A2.24,2.24,0,0,1,3.24,4H34.606a2.24,2.24,0,0,1,2.24,2.24ZM9.962,12.962v4.481h4.481V12.962Z" transform="translate(1.241 4.962)" fill="#707070"/>
  </g>
</svg>
